<svg xmlns="http://www.w3.org/2000/svg" viewBox="0 0 128 128" role="img" aria-label="Basketball logo">
  <defs>
    <radialGradient id="g" cx="35%" cy="28%" r="80%">
      <stop offset="0%" stop-color="#ff6b6b" stop-opacity="1"/>
      <stop offset="45%" stop-color="#ff2d55" stop-opacity="1"/>
      <stop offset="100%" stop-color="#7c3aed" stop-opacity="1"/>
    </radialGradient>
    <linearGradient id="shine" x1="0" y1="0" x2="1" y2="1">
      <stop offset="0%" stop-color="#ffffff" stop-opacity="0.28"/>
      <stop offset="55%" stop-color="#ffffff" stop-opacity="0"/>
    </linearGradient>
  </defs>

  <!-- Ball -->
  <circle cx="64" cy="64" r="54" fill="url(#g)"/>
  <circle cx="64" cy="64" r="54" fill="url(#shine)"/>

  <!-- Seams -->
  <path d="M64 10c18 16 18 92 0 108" fill="none" stroke="rgba(255,255,255,0.75)" stroke-width="6" stroke-linecap="round"/>
  <path d="M64 10c-18 16-18 92 0 108" fill="none" stroke="rgba(255,255,255,0.35)" stroke-width="6" stroke-linecap="round"/>
  <path d="M18 46c18-6 74-6 92 0" fill="none" stroke="rgba(255,255,255,0.45)" stroke-width="6" stroke-linecap="round"/>
  <path d="M18 82c18 6 74 6 92 0" fill="none" stroke="rgba(255,255,255,0.45)" stroke-width="6" stroke-linecap="round"/>

  <!-- Center monogram -->
  <path d="M44 74V54c0-5 4-9 9-9h8c5 0 9 4 9 9v20c0 5-4 9-9 9h-8c-5 0-9-4-9-9zm12-17h6c2 0 3 1 3 3v8c0 2-1 3-3 3h-6c-2 0-3-1-3-3v-8c0-2 1-3 3-3z"
        fill="rgba(255,255,255,0.92)"/>
</svg>
